<svg width="400" height="200" viewBox="0 0 400 200" fill="none" xmlns="http://www.w3.org/2000/svg">
<rect width="400" height="200" fill="#0803FF"/>
<path d="M86.9254 43V25.5455H97.7493V27.8125H89.5589V33.1307H96.9737V35.3892H89.5589V43H86.9254ZM100.988 43V25.5455H103.621V40.733H111.531V43H100.988ZM114.535 43V25.5455H125.478V27.8125H117.168V33.1307H124.907V35.3892H117.168V40.733H125.58V43H114.535ZM130.828 25.5455L135.004 32.3722H135.141L139.317 25.5455H142.368L136.93 34.2727L142.402 43H139.334L135.141 36.267H135.004L130.811 43H127.743L133.308 34.2727L127.777 25.5455H130.828ZM147.614 25.5455V43H144.98V25.5455H147.614ZM151.449 43V25.5455H157.841C159.08 25.5455 160.105 25.75 160.918 26.1591C161.73 26.5625 162.338 27.1108 162.741 27.804C163.145 28.4915 163.347 29.267 163.347 30.1307C163.347 30.858 163.213 31.4716 162.946 31.9716C162.679 32.4659 162.321 32.8636 161.872 33.1648C161.429 33.4602 160.94 33.6761 160.406 33.8125V33.983C160.986 34.0114 161.551 34.1989 162.102 34.5455C162.659 34.8864 163.119 35.3722 163.483 36.0028C163.847 36.6335 164.028 37.4006 164.028 38.304C164.028 39.196 163.818 39.9972 163.398 40.7074C162.983 41.4119 162.341 41.9716 161.472 42.3864C160.602 42.7955 159.491 43 158.139 43H151.449ZM154.082 40.7415H157.884C159.145 40.7415 160.048 40.4972 160.594 40.0085C161.139 39.5199 161.412 38.9091 161.412 38.1761C161.412 37.625 161.273 37.1193 160.994 36.6591C160.716 36.1989 160.318 35.8324 159.801 35.5597C159.29 35.2869 158.682 35.1506 157.977 35.1506H154.082V40.7415ZM154.082 33.0966H157.611C158.202 33.0966 158.733 32.983 159.205 32.7557C159.682 32.5284 160.06 32.2102 160.338 31.8011C160.622 31.3864 160.764 30.8977 160.764 30.3352C160.764 29.6136 160.511 29.0085 160.006 28.5199C159.5 28.0312 158.724 27.7869 157.679 27.7869H154.082V33.0966ZM167.152 43V25.5455H169.786V40.733H177.695V43H167.152ZM180.699 43V25.5455H191.642V27.8125H183.332V33.1307H191.071V35.3892H183.332V40.733H191.744V43H180.699ZM211.031 30.1307C210.94 29.3239 210.565 28.6989 209.906 28.2557C209.247 27.8068 208.418 27.5824 207.418 27.5824C206.702 27.5824 206.082 27.696 205.56 27.9233C205.037 28.1449 204.631 28.4517 204.341 28.8438C204.057 29.2301 203.915 29.6705 203.915 30.1648C203.915 30.5795 204.011 30.9375 204.205 31.2386C204.403 31.5398 204.662 31.7926 204.98 31.9972C205.304 32.196 205.651 32.3636 206.02 32.5C206.389 32.6307 206.744 32.7386 207.085 32.8239L208.79 33.267C209.347 33.4034 209.918 33.5881 210.503 33.821C211.088 34.054 211.631 34.3608 212.131 34.7415C212.631 35.1222 213.034 35.5938 213.341 36.1562C213.653 36.7188 213.81 37.392 213.81 38.1761C213.81 39.1648 213.554 40.0426 213.043 40.8097C212.537 41.5767 211.801 42.1818 210.835 42.625C209.875 43.0682 208.713 43.2898 207.349 43.2898C206.043 43.2898 204.912 43.0824 203.957 42.6676C203.003 42.2528 202.256 41.6648 201.716 40.9034C201.176 40.1364 200.878 39.2273 200.821 38.1761H203.463C203.514 38.8068 203.719 39.3324 204.077 39.7528C204.44 40.1676 204.903 40.4773 205.466 40.6818C206.034 40.8807 206.656 40.9801 207.332 40.9801C208.077 40.9801 208.739 40.8636 209.318 40.6307C209.903 40.392 210.364 40.0625 210.699 39.642C211.034 39.2159 211.202 38.7187 211.202 38.1506C211.202 37.6335 211.054 37.2102 210.759 36.8807C210.469 36.5511 210.074 36.2784 209.574 36.0625C209.08 35.8466 208.52 35.6562 207.895 35.4915L205.832 34.929C204.435 34.5483 203.327 33.9886 202.509 33.25C201.696 32.5114 201.29 31.5341 201.29 30.3182C201.29 29.3125 201.563 28.4347 202.108 27.6847C202.653 26.9347 203.392 26.3523 204.324 25.9375C205.256 25.517 206.307 25.3068 207.477 25.3068C208.659 25.3068 209.702 25.5142 210.605 25.929C211.514 26.3438 212.23 26.9148 212.753 27.642C213.276 28.3636 213.548 29.1932 213.571 30.1307H211.031ZM215.61 25.5455H218.602L223.161 33.4801H223.349L227.908 25.5455H230.9L224.567 36.1477V43H221.942V36.1477L215.61 25.5455ZM242.906 30.1307C242.815 29.3239 242.44 28.6989 241.781 28.2557C241.122 27.8068 240.293 27.5824 239.293 27.5824C238.577 27.5824 237.957 27.696 237.435 27.9233C236.912 28.1449 236.506 28.4517 236.216 28.8438C235.932 29.2301 235.79 29.6705 235.79 30.1648C235.79 30.5795 235.886 30.9375 236.08 31.2386C236.278 31.5398 236.537 31.7926 236.855 31.9972C237.179 32.196 237.526 32.3636 237.895 32.5C238.264 32.6307 238.619 32.7386 238.96 32.8239L240.665 33.267C241.222 33.4034 241.793 33.5881 242.378 33.821C242.963 34.054 243.506 34.3608 244.006 34.7415C244.506 35.1222 244.909 35.5938 245.216 36.1562C245.528 36.7188 245.685 37.392 245.685 38.1761C245.685 39.1648 245.429 40.0426 244.918 40.8097C244.412 41.5767 243.676 42.1818 242.71 42.625C241.75 43.0682 240.588 43.2898 239.224 43.2898C237.918 43.2898 236.787 43.0824 235.832 42.6676C234.878 42.2528 234.131 41.6648 233.591 40.9034C233.051 40.1364 232.753 39.2273 232.696 38.1761H235.338C235.389 38.8068 235.594 39.3324 235.952 39.7528C236.315 40.1676 236.778 40.4773 237.341 40.6818C237.909 40.8807 238.531 40.9801 239.207 40.9801C239.952 40.9801 240.614 40.8636 241.193 40.6307C241.778 40.392 242.239 40.0625 242.574 39.642C242.909 39.2159 243.077 38.7187 243.077 38.1506C243.077 37.6335 242.929 37.2102 242.634 36.8807C242.344 36.5511 241.949 36.2784 241.449 36.0625C240.955 35.8466 240.395 35.6562 239.77 35.4915L237.707 34.929C236.31 34.5483 235.202 33.9886 234.384 33.25C233.571 32.5114 233.165 31.5341 233.165 30.3182C233.165 29.3125 233.438 28.4347 233.983 27.6847C234.528 26.9347 235.267 26.3523 236.199 25.9375C237.131 25.517 238.182 25.3068 239.352 25.3068C240.534 25.3068 241.577 25.5142 242.48 25.929C243.389 26.3438 244.105 26.9148 244.628 27.642C245.151 28.3636 245.423 29.1932 245.446 30.1307H242.906ZM247.971 27.8125V25.5455H261.479V27.8125H256.033V43H253.408V27.8125H247.971ZM264.464 43V25.5455H275.408V27.8125H267.098V33.1307H274.837V35.3892H267.098V40.733H275.51V43H264.464ZM278.925 25.5455H282.121L287.678 39.1136H287.883L293.44 25.5455H296.636V43H294.13V30.3693H293.968L288.82 42.9744H286.741L281.593 30.3608H281.431V43H278.925V25.5455ZM309.984 30.1307C309.893 29.3239 309.518 28.6989 308.859 28.2557C308.2 27.8068 307.371 27.5824 306.371 27.5824C305.655 27.5824 305.036 27.696 304.513 27.9233C303.99 28.1449 303.584 28.4517 303.294 28.8438C303.01 29.2301 302.868 29.6705 302.868 30.1648C302.868 30.5795 302.964 30.9375 303.158 31.2386C303.357 31.5398 303.615 31.7926 303.933 31.9972C304.257 32.196 304.604 32.3636 304.973 32.5C305.342 32.6307 305.697 32.7386 306.038 32.8239L307.743 33.267C308.3 33.4034 308.871 33.5881 309.456 33.821C310.041 34.054 310.584 34.3608 311.084 34.7415C311.584 35.1222 311.987 35.5938 312.294 36.1562C312.607 36.7188 312.763 37.392 312.763 38.1761C312.763 39.1648 312.507 40.0426 311.996 40.8097C311.49 41.5767 310.754 42.1818 309.788 42.625C308.828 43.0682 307.666 43.2898 306.303 43.2898C304.996 43.2898 303.865 43.0824 302.911 42.6676C301.956 42.2528 301.209 41.6648 300.669 40.9034C300.129 40.1364 299.831 39.2273 299.774 38.1761H302.416C302.467 38.8068 302.672 39.3324 303.03 39.7528C303.393 40.1676 303.857 40.4773 304.419 40.6818C304.987 40.8807 305.609 40.9801 306.286 40.9801C307.03 40.9801 307.692 40.8636 308.271 40.6307C308.857 40.392 309.317 40.0625 309.652 39.642C309.987 39.2159 310.155 38.7187 310.155 38.1506C310.155 37.6335 310.007 37.2102 309.712 36.8807C309.422 36.5511 309.027 36.2784 308.527 36.0625C308.033 35.8466 307.473 35.6562 306.848 35.4915L304.786 34.929C303.388 34.5483 302.28 33.9886 301.462 33.25C300.649 32.5114 300.243 31.5341 300.243 30.3182C300.243 29.3125 300.516 28.4347 301.061 27.6847C301.607 26.9347 302.345 26.3523 303.277 25.9375C304.209 25.517 305.26 25.3068 306.43 25.3068C307.612 25.3068 308.655 25.5142 309.558 25.929C310.467 26.3438 311.183 26.9148 311.706 27.642C312.229 28.3636 312.501 29.1932 312.524 30.1307H309.984Z" fill="white"/>
</svg>
