<svg width="400" height="200" viewBox="0 0 400 200" fill="none" xmlns="http://www.w3.org/2000/svg">
<rect width="400" height="200" fill="#0803FF"/>
<path d="M34.2887 43V25.5455H36.9222V33.1307H45.6239V25.5455H48.266V43H45.6239V35.3892H36.9222V43H34.2887ZM52.1012 43V25.5455H54.7347V33.1307H63.4364V25.5455H66.0785V43H63.4364V35.3892H54.7347V43H52.1012ZM76.2653 43V25.5455H82.6573C83.896 25.5455 84.9215 25.75 85.734 26.1591C86.5465 26.5625 87.1545 27.1108 87.5579 27.804C87.9613 28.4915 88.163 29.267 88.163 30.1307C88.163 30.858 88.0295 31.4716 87.7624 31.9716C87.4954 32.4659 87.1374 32.8636 86.6886 33.1648C86.2454 33.4602 85.7567 33.6761 85.2227 33.8125V33.983C85.8022 34.0114 86.3675 34.1989 86.9187 34.5455C87.4755 34.8864 87.9357 35.3722 88.2994 36.0028C88.663 36.6335 88.8448 37.4006 88.8448 38.304C88.8448 39.196 88.6346 39.9972 88.2141 40.7074C87.7994 41.4119 87.1573 41.9716 86.288 42.3864C85.4187 42.7955 84.3079 43 82.9556 43H76.2653ZM78.8988 40.7415H82.6999C83.9613 40.7415 84.8647 40.4972 85.4102 40.0085C85.9556 39.5199 86.2283 38.9091 86.2283 38.1761C86.2283 37.625 86.0891 37.1193 85.8107 36.6591C85.5323 36.1989 85.1346 35.8324 84.6175 35.5597C84.1062 35.2869 83.4982 35.1506 82.7937 35.1506H78.8988V40.7415ZM78.8988 33.0966H82.4272C83.0181 33.0966 83.5494 32.983 84.021 32.7557C84.4982 32.5284 84.8761 32.2102 85.1545 31.8011C85.4386 31.3864 85.5806 30.8977 85.5806 30.3352C85.5806 29.6136 85.3278 29.0085 84.8221 28.5199C84.3164 28.0312 83.5408 27.7869 82.4954 27.7869H78.8988V33.0966ZM106.466 31.2216H103.806C103.704 30.6534 103.514 30.1534 103.235 29.7216C102.957 29.2898 102.616 28.9233 102.213 28.6222C101.809 28.321 101.358 28.0937 100.858 27.9403C100.363 27.7869 99.8377 27.7102 99.2809 27.7102C98.2752 27.7102 97.3746 27.9631 96.5792 28.4688C95.7894 28.9744 95.1644 29.7159 94.7042 30.6932C94.2496 31.6705 94.0224 32.8636 94.0224 34.2727C94.0224 35.6932 94.2496 36.892 94.7042 37.8693C95.1644 38.8466 95.7923 39.5852 96.5877 40.0852C97.3832 40.5852 98.2781 40.8352 99.2724 40.8352C99.8235 40.8352 100.346 40.7614 100.841 40.6136C101.341 40.4602 101.792 40.2358 102.196 39.9403C102.599 39.6449 102.94 39.2841 103.218 38.858C103.502 38.4261 103.699 37.9318 103.806 37.375L106.466 37.3835C106.324 38.2415 106.048 39.0312 105.639 39.7528C105.235 40.4688 104.716 41.0881 104.079 41.6108C103.449 42.1278 102.727 42.5284 101.914 42.8125C101.102 43.0966 100.216 43.2386 99.2553 43.2386C97.744 43.2386 96.3974 42.8807 95.2156 42.1648C94.0337 41.4432 93.1019 40.4119 92.4201 39.071C91.744 37.7301 91.4059 36.1307 91.4059 34.2727C91.4059 32.4091 91.7468 30.8097 92.4286 29.4744C93.1104 28.1335 94.0423 27.1051 95.2241 26.3892C96.4059 25.6676 97.7496 25.3068 99.2553 25.3068C100.181 25.3068 101.045 25.4403 101.846 25.7074C102.653 25.9687 103.377 26.3551 104.02 26.8665C104.662 27.3722 105.193 27.9915 105.613 28.7244C106.034 29.4517 106.318 30.2841 106.466 31.2216ZM123.705 25.5455V43H121.284L112.412 30.1989H112.25V43H109.617V25.5455H112.054L120.935 38.3636H121.097V25.5455H123.705Z" fill="white"/>
<path d="M270.335 43L265.494 25.5455H268.264L271.665 39.0625H271.827L275.364 25.5455H278.108L281.645 39.071H281.807L285.199 25.5455H287.977L283.128 43H280.477L276.804 29.9261H276.668L272.994 43H270.335ZM293.796 43L288.955 25.5455H291.725L295.126 39.0625H295.288L298.825 25.5455H301.569L305.106 39.071H305.268L308.66 25.5455H311.438L306.589 43H303.938L300.265 29.9261H300.129L296.455 43H293.796ZM317.257 43L312.416 25.5455H315.186L318.587 39.0625H318.749L322.286 25.5455H325.03L328.567 39.071H328.729L332.121 25.5455H334.899L330.05 43H327.399L323.726 29.9261H323.589L319.916 43H317.257ZM268.392 72.1619C267.926 72.1619 267.526 71.9972 267.19 71.6676C266.855 71.3324 266.688 70.929 266.688 70.4574C266.688 69.9915 266.855 69.5937 267.19 69.2642C267.526 68.929 267.926 68.7614 268.392 68.7614C268.858 68.7614 269.259 68.929 269.594 69.2642C269.929 69.5937 270.097 69.9915 270.097 70.4574C270.097 70.7699 270.017 71.0568 269.858 71.3182C269.705 71.5739 269.5 71.7784 269.244 71.9318C268.989 72.0852 268.705 72.1619 268.392 72.1619ZM273.714 72V54.5455H284.538V56.8125H276.348V62.1307H283.763V64.3892H276.348V72H273.714ZM287.777 72V54.5455H290.411V69.733H298.32V72H287.777ZM301.324 72V54.5455H312.267V56.8125H303.957V62.1307H311.696V64.3892H303.957V69.733H312.369V72H301.324ZM317.617 54.5455L321.793 61.3722H321.93L326.106 54.5455H329.157L323.719 63.2727L329.191 72H326.123L321.93 65.267H321.793L317.6 72H314.532L320.097 63.2727L314.566 54.5455H317.617ZM334.403 54.5455V72H331.769V54.5455H334.403ZM338.238 72V54.5455H344.63C345.869 54.5455 346.894 54.75 347.707 55.1591C348.519 55.5625 349.127 56.1108 349.531 56.804C349.934 57.4915 350.136 58.267 350.136 59.1307C350.136 59.858 350.002 60.4716 349.735 60.9716C349.468 61.4659 349.11 61.8636 348.661 62.1648C348.218 62.4602 347.729 62.6761 347.195 62.8125V62.983C347.775 63.0114 348.34 63.1989 348.891 63.5455C349.448 63.8864 349.908 64.3722 350.272 65.0028C350.636 65.6335 350.817 66.4006 350.817 67.304C350.817 68.196 350.607 68.9972 350.187 69.7074C349.772 70.4119 349.13 70.9716 348.261 71.3864C347.391 71.7955 346.281 72 344.928 72H338.238ZM340.871 69.7415H344.673C345.934 69.7415 346.837 69.4972 347.383 69.0085C347.928 68.5199 348.201 67.9091 348.201 67.1761C348.201 66.625 348.062 66.1193 347.783 65.6591C347.505 65.1989 347.107 64.8324 346.59 64.5597C346.079 64.2869 345.471 64.1506 344.766 64.1506H340.871V69.7415ZM340.871 62.0966H344.4C344.991 62.0966 345.522 61.983 345.994 61.7557C346.471 61.5284 346.849 61.2102 347.127 60.8011C347.411 60.3864 347.553 59.8977 347.553 59.3352C347.553 58.6136 347.3 58.0085 346.795 57.5199C346.289 57.0312 345.513 56.7869 344.468 56.7869H340.871V62.0966ZM353.941 72V54.5455H356.575V69.733H364.484V72H353.941ZM367.488 72V54.5455H378.431V56.8125H370.121V62.1307H377.86V64.3892H370.121V69.733H378.533V72H367.488ZM268.443 83.5455L273.301 97.7614H273.497L278.355 83.5455H281.202L274.92 101H271.878L265.597 83.5455H268.443ZM286.356 83.5455V101H283.722V83.5455H286.356ZM299.711 88.1307C299.62 87.3239 299.245 86.6989 298.586 86.2557C297.927 85.8068 297.097 85.5824 296.097 85.5824C295.381 85.5824 294.762 85.696 294.239 85.9233C293.717 86.1449 293.31 86.4517 293.021 86.8438C292.737 87.2301 292.594 87.6705 292.594 88.1648C292.594 88.5795 292.691 88.9375 292.884 89.2386C293.083 89.5398 293.342 89.7926 293.66 89.9972C293.984 90.196 294.33 90.3636 294.7 90.5C295.069 90.6307 295.424 90.7386 295.765 90.8239L297.469 91.267C298.026 91.4034 298.597 91.5881 299.183 91.821C299.768 92.054 300.31 92.3608 300.81 92.7415C301.31 93.1222 301.714 93.5938 302.021 94.1562C302.333 94.7188 302.489 95.392 302.489 96.1761C302.489 97.1648 302.234 98.0426 301.722 98.8097C301.217 99.5767 300.481 100.182 299.515 100.625C298.555 101.068 297.393 101.29 296.029 101.29C294.722 101.29 293.592 101.082 292.637 100.668C291.683 100.253 290.935 99.6648 290.396 98.9034C289.856 98.1364 289.558 97.2273 289.501 96.1761H292.143C292.194 96.8068 292.398 97.3324 292.756 97.7528C293.12 98.1676 293.583 98.4773 294.146 98.6818C294.714 98.8807 295.336 98.9801 296.012 98.9801C296.756 98.9801 297.418 98.8636 297.998 98.6307C298.583 98.392 299.043 98.0625 299.379 97.642C299.714 97.2159 299.881 96.7187 299.881 96.1506C299.881 95.6335 299.734 95.2102 299.438 94.8807C299.148 94.5511 298.754 94.2784 298.254 94.0625C297.759 93.8466 297.2 93.6562 296.575 93.4915L294.512 92.929C293.114 92.5483 292.006 91.9886 291.188 91.25C290.376 90.5114 289.969 89.5341 289.969 88.3182C289.969 87.3125 290.242 86.4347 290.788 85.6847C291.333 84.9347 292.072 84.3523 293.004 83.9375C293.935 83.517 294.987 83.3068 296.157 83.3068C297.339 83.3068 298.381 83.5142 299.285 83.929C300.194 84.3438 300.91 84.9148 301.433 85.642C301.955 86.3636 302.228 87.1932 302.251 88.1307H299.711ZM316.861 83.5455H319.503V95.0256C319.503 96.2472 319.216 97.3295 318.642 98.2727C318.068 99.2102 317.261 99.9489 316.222 100.489C315.182 101.023 313.963 101.29 312.565 101.29C311.173 101.29 309.957 101.023 308.918 100.489C307.878 99.9489 307.071 99.2102 306.497 98.2727C305.923 97.3295 305.636 96.2472 305.636 95.0256V83.5455H308.27V94.8125C308.27 95.6023 308.443 96.304 308.79 96.9176C309.142 97.5312 309.639 98.0142 310.281 98.3665C310.923 98.7131 311.685 98.8864 312.565 98.8864C313.452 98.8864 314.216 98.7131 314.858 98.3665C315.506 98.0142 316 97.5312 316.341 96.9176C316.688 96.304 316.861 95.6023 316.861 94.8125V83.5455ZM324.806 101H322.011L328.292 83.5455H331.335L337.616 101H334.82L329.886 86.7159H329.749L324.806 101ZM325.275 94.1648H334.343V96.3807H325.275V94.1648ZM340.136 101V83.5455H342.77V98.733H350.679V101H340.136ZM276.438 117.131C276.347 116.324 275.972 115.699 275.312 115.256C274.653 114.807 273.824 114.582 272.824 114.582C272.108 114.582 271.489 114.696 270.966 114.923C270.443 115.145 270.037 115.452 269.747 115.844C269.463 116.23 269.321 116.67 269.321 117.165C269.321 117.58 269.418 117.937 269.611 118.239C269.81 118.54 270.068 118.793 270.386 118.997C270.71 119.196 271.057 119.364 271.426 119.5C271.795 119.631 272.151 119.739 272.491 119.824L274.196 120.267C274.753 120.403 275.324 120.588 275.909 120.821C276.494 121.054 277.037 121.361 277.537 121.741C278.037 122.122 278.44 122.594 278.747 123.156C279.06 123.719 279.216 124.392 279.216 125.176C279.216 126.165 278.96 127.043 278.449 127.81C277.943 128.577 277.207 129.182 276.241 129.625C275.281 130.068 274.119 130.29 272.756 130.29C271.449 130.29 270.318 130.082 269.364 129.668C268.409 129.253 267.662 128.665 267.122 127.903C266.582 127.136 266.284 126.227 266.227 125.176H268.869C268.92 125.807 269.125 126.332 269.483 126.753C269.847 127.168 270.31 127.477 270.872 127.682C271.44 127.881 272.062 127.98 272.739 127.98C273.483 127.98 274.145 127.864 274.724 127.631C275.31 127.392 275.77 127.062 276.105 126.642C276.44 126.216 276.608 125.719 276.608 125.151C276.608 124.634 276.46 124.21 276.165 123.881C275.875 123.551 275.48 123.278 274.98 123.062C274.486 122.847 273.926 122.656 273.301 122.491L271.239 121.929C269.841 121.548 268.733 120.989 267.915 120.25C267.102 119.511 266.696 118.534 266.696 117.318C266.696 116.312 266.969 115.435 267.514 114.685C268.06 113.935 268.798 113.352 269.73 112.938C270.662 112.517 271.713 112.307 272.884 112.307C274.065 112.307 275.108 112.514 276.011 112.929C276.92 113.344 277.636 113.915 278.159 114.642C278.682 115.364 278.955 116.193 278.977 117.131H276.438ZM281.016 112.545H284.008L288.567 120.48H288.755L293.315 112.545H296.306L289.974 123.148V130H287.349V123.148L281.016 112.545ZM308.312 117.131C308.222 116.324 307.847 115.699 307.188 115.256C306.528 114.807 305.699 114.582 304.699 114.582C303.983 114.582 303.364 114.696 302.841 114.923C302.318 115.145 301.912 115.452 301.622 115.844C301.338 116.23 301.196 116.67 301.196 117.165C301.196 117.58 301.293 117.937 301.486 118.239C301.685 118.54 301.943 118.793 302.261 118.997C302.585 119.196 302.932 119.364 303.301 119.5C303.67 119.631 304.026 119.739 304.366 119.824L306.071 120.267C306.628 120.403 307.199 120.588 307.784 120.821C308.369 121.054 308.912 121.361 309.412 121.741C309.912 122.122 310.315 122.594 310.622 123.156C310.935 123.719 311.091 124.392 311.091 125.176C311.091 126.165 310.835 127.043 310.324 127.81C309.818 128.577 309.082 129.182 308.116 129.625C307.156 130.068 305.994 130.29 304.631 130.29C303.324 130.29 302.193 130.082 301.239 129.668C300.284 129.253 299.537 128.665 298.997 127.903C298.457 127.136 298.159 126.227 298.102 125.176H300.744C300.795 125.807 301 126.332 301.358 126.753C301.722 127.168 302.185 127.477 302.747 127.682C303.315 127.881 303.938 127.98 304.614 127.98C305.358 127.98 306.02 127.864 306.599 127.631C307.185 127.392 307.645 127.062 307.98 126.642C308.315 126.216 308.483 125.719 308.483 125.151C308.483 124.634 308.335 124.21 308.04 123.881C307.75 123.551 307.355 123.278 306.855 123.062C306.361 122.847 305.801 122.656 305.176 122.491L303.114 121.929C301.716 121.548 300.608 120.989 299.79 120.25C298.977 119.511 298.571 118.534 298.571 117.318C298.571 116.312 298.844 115.435 299.389 114.685C299.935 113.935 300.673 113.352 301.605 112.938C302.537 112.517 303.588 112.307 304.759 112.307C305.94 112.307 306.983 112.514 307.886 112.929C308.795 113.344 309.511 113.915 310.034 114.642C310.557 115.364 310.83 116.193 310.852 117.131H308.312ZM313.377 114.812V112.545H326.886V114.812H321.44V130H318.815V114.812H313.377ZM329.871 130V112.545H340.814V114.812H332.504V120.131H340.243V122.389H332.504V127.733H340.916V130H329.871ZM344.332 112.545H347.528L353.085 126.114H353.289L358.846 112.545H362.042V130H359.536V117.369H359.374L354.227 129.974H352.147L346.999 117.361H346.837V130H344.332V112.545ZM375.391 117.131C375.3 116.324 374.925 115.699 374.266 115.256C373.607 114.807 372.777 114.582 371.777 114.582C371.061 114.582 370.442 114.696 369.919 114.923C369.396 115.145 368.99 115.452 368.7 115.844C368.416 116.23 368.274 116.67 368.274 117.165C368.274 117.58 368.371 117.937 368.564 118.239C368.763 118.54 369.021 118.793 369.339 118.997C369.663 119.196 370.01 119.364 370.379 119.5C370.749 119.631 371.104 119.739 371.445 119.824L373.149 120.267C373.706 120.403 374.277 120.588 374.862 120.821C375.447 121.054 375.99 121.361 376.49 121.741C376.99 122.122 377.393 122.594 377.7 123.156C378.013 123.719 378.169 124.392 378.169 125.176C378.169 126.165 377.913 127.043 377.402 127.81C376.896 128.577 376.161 129.182 375.195 129.625C374.234 130.068 373.072 130.29 371.709 130.29C370.402 130.29 369.271 130.082 368.317 129.668C367.362 129.253 366.615 128.665 366.075 127.903C365.536 127.136 365.237 126.227 365.18 125.176H367.822C367.874 125.807 368.078 126.332 368.436 126.753C368.8 127.168 369.263 127.477 369.825 127.682C370.393 127.881 371.016 127.98 371.692 127.98C372.436 127.98 373.098 127.864 373.678 127.631C374.263 127.392 374.723 127.062 375.058 126.642C375.393 126.216 375.561 125.719 375.561 125.151C375.561 124.634 375.413 124.21 375.118 123.881C374.828 123.551 374.433 123.278 373.933 123.062C373.439 122.847 372.879 122.656 372.254 122.491L370.192 121.929C368.794 121.548 367.686 120.989 366.868 120.25C366.055 119.511 365.649 118.534 365.649 117.318C365.649 116.312 365.922 115.435 366.467 114.685C367.013 113.935 367.751 113.352 368.683 112.938C369.615 112.517 370.666 112.307 371.837 112.307C373.018 112.307 374.061 112.514 374.964 112.929C375.874 113.344 376.589 113.915 377.112 114.642C377.635 115.364 377.908 116.193 377.93 117.131H375.391ZM268.392 159.162C267.926 159.162 267.526 158.997 267.19 158.668C266.855 158.332 266.688 157.929 266.688 157.457C266.688 156.991 266.855 156.594 267.19 156.264C267.526 155.929 267.926 155.761 268.392 155.761C268.858 155.761 269.259 155.929 269.594 156.264C269.929 156.594 270.097 156.991 270.097 157.457C270.097 157.77 270.017 158.057 269.858 158.318C269.705 158.574 269.5 158.778 269.244 158.932C268.989 159.085 268.705 159.162 268.392 159.162ZM276.348 141.545V159H273.714V141.545H276.348ZM294.271 141.545V159H291.851L282.979 146.199H282.817V159H280.183V141.545H282.621L291.501 154.364H291.663V141.545H294.271ZM298.113 159V141.545H308.937V143.812H300.746V149.131H308.161V151.389H300.746V159H298.113ZM327.337 150.273C327.337 152.136 326.996 153.739 326.315 155.08C325.633 156.415 324.698 157.443 323.511 158.165C322.329 158.881 320.985 159.239 319.479 159.239C317.968 159.239 316.619 158.881 315.431 158.165C314.249 157.443 313.317 156.412 312.636 155.071C311.954 153.73 311.613 152.131 311.613 150.273C311.613 148.409 311.954 146.81 312.636 145.474C313.317 144.134 314.249 143.105 315.431 142.389C316.619 141.668 317.968 141.307 319.479 141.307C320.985 141.307 322.329 141.668 323.511 142.389C324.698 143.105 325.633 144.134 326.315 145.474C326.996 146.81 327.337 148.409 327.337 150.273ZM324.729 150.273C324.729 148.852 324.499 147.656 324.039 146.685C323.585 145.707 322.96 144.969 322.164 144.469C321.374 143.963 320.479 143.71 319.479 143.71C318.474 143.71 317.576 143.963 316.786 144.469C315.996 144.969 315.371 145.707 314.911 146.685C314.457 147.656 314.229 148.852 314.229 150.273C314.229 151.693 314.457 152.892 314.911 153.869C315.371 154.841 315.996 155.58 316.786 156.085C317.576 156.585 318.474 156.835 319.479 156.835C320.479 156.835 321.374 156.585 322.164 156.085C322.96 155.58 323.585 154.841 324.039 153.869C324.499 152.892 324.729 151.693 324.729 150.273Z" fill="white"/>
</svg>
